<svg xmlns="http://www.w3.org/2000/svg" viewBox="0 0 100 125" x="0px" y="0px"><path d="m 75.9136,17.268396 c -3.28768,0 -5.952872,2.665196 -5.952872,5.952873 l 0,5.506408 c 0,1.277224 -0.301349,2.474924 -0.837123,3.515916 -2.550013,-2.316936 -6.829305,-3.392699 -9.989665,-1.358001 -1.068394,0.68785 -1.823068,1.852695 -1.823068,3.162464 0,1.309769 0.772809,2.447227 1.823068,3.162464 3.05463,2.080226 7.120948,1.025252 9.989665,-1.357999 0.535774,1.040997 0.837123,2.238691 0.837123,3.515916 0,1.277225 -0.301349,2.474925 -0.837123,3.515916 -2.550013,-2.316936 -6.829308,-3.3741 -9.989665,-1.339397 -1.068397,0.687855 -1.823068,1.852695 -1.823068,3.162464 0,1.309769 0.772805,2.428624 1.823068,3.143862 3.054627,2.080231 7.120948,1.043847 9.989665,-1.339397 0.535774,1.040991 0.837123,2.201486 0.837123,3.47871 0,1.277225 -0.301349,2.474925 -0.837123,3.515916 -2.550013,-2.316936 -6.829305,-3.3741 -9.989665,-1.339397 -1.068394,0.687848 -1.823068,1.852695 -1.823068,3.162464 0,1.309776 0.772805,2.428624 1.823068,3.143862 3.054627,2.080231 7.120948,1.043854 9.989665,-1.339397 0.535774,1.040991 0.837123,2.238691 0.837123,3.515916 0,1.277231 -0.301349,2.456316 -0.837123,3.497312 -2.550013,-2.316941 -6.829308,-3.374094 -9.989665,-1.339396 -1.068397,0.687861 -1.823068,1.852695 -1.823068,3.162464 0,1.309768 0.772809,2.447226 1.823068,3.162463 3.05463,2.080232 7.120948,1.025252 9.989665,-1.357999 0.535774,1.040991 0.837123,2.238691 0.837123,3.515916 l 0,5.506408 c 0,3.287677 2.665192,5.952873 5.952872,5.952873 l 19.0864,0 0,-2.250933 -19.0864,0 c -2.048883,0 -3.701942,-1.653058 -3.701942,-3.70194 l 0,-5.506408 c 0,-1.962019 -0.560421,-3.812321 -1.544027,-5.338983 0.979677,-1.525245 1.544027,-3.344044 1.544027,-5.301777 0,-1.962014 -0.560421,-3.812328 -1.544027,-5.338983 0.979677,-1.525246 1.544027,-3.362654 1.544027,-5.320381 0,-1.962019 -0.560421,-3.775116 -1.544027,-5.301777 0.979677,-1.525246 1.544027,-3.362642 1.544027,-5.320381 0,-1.96202 -0.560421,-3.793724 -1.544027,-5.320381 0.979677,-1.525251 1.544027,-3.362647 1.544027,-5.320379 l 0,-5.506408 c 0,-2.048884 1.653059,-3.701943 3.701942,-3.701943 l 19.0864,0 0,-2.25093 z M 62.984704,32.001757 c 1.869956,0 3.561155,0.784255 4.818107,2.046299 -1.257605,1.266058 -2.94482,2.046301 -4.818107,2.046301 -1.046194,0 -1.962898,-0.28653 -2.567177,-0.706904 -0.604277,-0.420356 -0.874328,-0.900432 -0.874328,-1.339397 0,-0.438958 0.270051,-0.900431 0.874328,-1.320792 0.604279,-0.420369 1.520983,-0.725507 2.567177,-0.725507 z m 0,10.64076 c 1.869956,0 3.561155,0.784262 4.818107,2.046301 -1.257605,1.266056 -2.94482,2.027697 -4.818107,2.027697 -1.046194,0 -1.962896,-0.267933 -2.567177,-0.688301 -0.604274,-0.420362 -0.874328,-0.881835 -0.874328,-1.320794 0,-0.438958 0.270054,-0.919035 0.874328,-1.339396 0.604281,-0.420368 1.520983,-0.725507 2.567177,-0.725507 z m 0,10.659363 c 1.869956,0 3.561155,0.747056 4.818107,2.009096 -1.257605,1.26605 -2.94482,2.064903 -4.818107,2.064903 -1.046194,0 -1.962898,-0.305139 -2.567177,-0.725507 -0.604277,-0.420362 -0.874328,-0.881835 -0.874328,-1.320794 0,-0.438953 0.270051,-0.881829 0.874328,-1.302191 0.604279,-0.420368 1.520983,-0.725507 2.567177,-0.725507 z m 0,10.622159 c 1.869956,0 3.561155,0.765652 4.818107,2.027697 -1.257605,1.266051 -2.94482,2.064903 -4.818107,2.064903 -1.046194,0 -1.962896,-0.305139 -2.567177,-0.725507 -0.604274,-0.420361 -0.874328,-0.881834 -0.874328,-1.320793 0,-0.438964 0.270054,-0.900432 0.874328,-1.320794 0.604281,-0.420368 1.520983,-0.725506 2.567177,-0.725506 z" color="#000"/><path d="m 51.695194,81.18233 0,-62.34965 2.242927,0 0,62.34965 z" color="#000"/><path d="m 48.304803,81.18233 0,-62.34965 -2.242928,0 0,62.34965 z" color="#000"/><path d="m 24.0864,17.268396 c 3.287682,0 5.952873,2.665196 5.952873,5.952873 l 0,5.506408 c 0,1.277224 0.301347,2.474924 0.837122,3.515916 2.550015,-2.316936 6.829303,-3.392699 9.989665,-1.358001 1.068392,0.68785 1.823068,1.852695 1.823068,3.162464 0,1.309769 -0.772808,2.447227 -1.823068,3.162464 -3.054633,2.080226 -7.120946,1.025252 -9.989665,-1.357999 -0.535775,1.040997 -0.837122,2.238691 -0.837122,3.515916 0,1.277225 0.301347,2.474925 0.837122,3.515916 2.550015,-2.316936 6.829309,-3.3741 9.989665,-1.339397 1.068399,0.687855 1.823068,1.852695 1.823068,3.162464 0,1.309769 -0.772808,2.428624 -1.823068,3.143862 -3.054627,2.080231 -7.120946,1.043847 -9.989665,-1.339397 -0.535775,1.040991 -0.837122,2.201486 -0.837122,3.47871 0,1.277225 0.301347,2.474925 0.837122,3.515916 2.550015,-2.316936 6.829303,-3.3741 9.989665,-1.339397 1.068392,0.687848 1.823068,1.852695 1.823068,3.162464 0,1.309776 -0.772808,2.428624 -1.823068,3.143862 -3.054627,2.080231 -7.120946,1.043854 -9.989665,-1.339397 -0.535775,1.040991 -0.837122,2.238691 -0.837122,3.515916 0,1.277231 0.301347,2.456316 0.837122,3.497312 2.550015,-2.316941 6.829309,-3.374094 9.989665,-1.339396 1.068399,0.687861 1.823068,1.852695 1.823068,3.162464 0,1.309768 -0.772808,2.447226 -1.823068,3.162463 -3.054633,2.080232 -7.120946,1.025252 -9.989665,-1.357999 -0.535775,1.040991 -0.837122,2.238691 -0.837122,3.515916 l 0,5.506408 c 0,3.287677 -2.665191,5.952873 -5.952873,5.952873 L 5,82.75 l 0,-2.250933 19.0864,0 c 2.048883,0 3.701942,-1.653058 3.701942,-3.70194 l 0,-5.506408 c 0,-1.962019 0.560422,-3.812321 1.544027,-5.338983 -0.979676,-1.525245 -1.544027,-3.344044 -1.544027,-5.301777 0,-1.962014 0.560422,-3.812328 1.544027,-5.338983 -0.979676,-1.525246 -1.544027,-3.362654 -1.544027,-5.320381 0,-1.962019 0.560422,-3.775116 1.544027,-5.301777 -0.979676,-1.525246 -1.544027,-3.362642 -1.544027,-5.320381 0,-1.96202 0.560422,-3.793724 1.544027,-5.320381 -0.979676,-1.525251 -1.544027,-3.362647 -1.544027,-5.320379 l 0,-5.506408 c 0,-2.048884 -1.653059,-3.701943 -3.701942,-3.701943 l -19.0864,0 0,-2.25093 z m 12.928896,14.733361 c -1.869958,0 -3.561157,0.784255 -4.818107,2.046299 1.257604,1.266058 2.944821,2.046301 4.818107,2.046301 1.046193,0 1.9629,-0.28653 2.567177,-0.706904 0.604276,-0.420356 0.874328,-0.900432 0.874328,-1.339397 0,-0.438958 -0.270052,-0.900431 -0.874328,-1.320792 -0.604277,-0.420369 -1.520984,-0.725507 -2.567177,-0.725507 z m 0,10.64076 c -1.869958,0 -3.561157,0.784262 -4.818107,2.046301 1.257604,1.266056 2.944821,2.027697 4.818107,2.027697 1.046193,0 1.962895,-0.267933 2.567177,-0.688301 0.604276,-0.420362 0.874328,-0.881835 0.874328,-1.320794 0,-0.438958 -0.270052,-0.919035 -0.874328,-1.339396 -0.604282,-0.420368 -1.520984,-0.725507 -2.567177,-0.725507 z m 0,10.659363 c -1.869958,0 -3.561157,0.747056 -4.818107,2.009096 1.257604,1.26605 2.944821,2.064903 4.818107,2.064903 1.046193,0 1.9629,-0.305139 2.567177,-0.725507 0.604276,-0.420362 0.874328,-0.881835 0.874328,-1.320794 0,-0.438953 -0.270052,-0.881829 -0.874328,-1.302191 -0.604277,-0.420368 -1.520984,-0.725507 -2.567177,-0.725507 z m 0,10.622159 c -1.869958,0 -3.561157,0.765652 -4.818107,2.027697 1.257604,1.266051 2.944821,2.064903 4.818107,2.064903 1.046193,0 1.962895,-0.305139 2.567177,-0.725507 0.604276,-0.420361 0.874328,-0.881834 0.874328,-1.320793 0,-0.438964 -0.270052,-0.900432 -0.874328,-1.320794 -0.604282,-0.420368 -1.520984,-0.725506 -2.567177,-0.725506 z" color="#000"/><text x="0" y="115" fill="#000000" font-size="5px" font-weight="bold" font-family="'Helvetica Neue', Helvetica, Arial-Unicode, Arial, Sans-serif">Created by Magicon</text><text x="0" y="120" fill="#000000" font-size="5px" font-weight="bold" font-family="'Helvetica Neue', Helvetica, Arial-Unicode, Arial, Sans-serif">from the Noun Project</text></svg>